<svg width="60" height="60" viewBox="0 0 60 60" fill="none" xmlns="http://www.w3.org/2000/svg">
<path fill-rule="evenodd" clip-rule="evenodd" d="M42.75 42H17.25V24C17.25 16.002 23.625 12 29.9968 12H30.0032C36.375 12 42.75 16.002 42.75 24V42ZM33.1875 51C33.1875 52.656 31.7595 54 30 54C28.2405 54 26.8125 52.656 26.8125 51V48H33.1875V51ZM52.3125 42C50.553 42 49.125 40.656 49.125 39V24C49.125 13.341 41.577 7.42494 33.1875 6.23694V3C33.1875 1.344 31.7595 0 30 0C28.2405 0 26.8125 1.344 26.8125 3V6.23694C18.423 7.42494 10.875 13.341 10.875 24V39C10.875 40.656 9.447 42 7.6875 42C5.928 42 4.5 43.344 4.5 45C4.5 46.656 5.928 48 7.6875 48H20.4375V51C20.4375 55.971 24.7183 60 30 60C35.2817 60 39.5625 55.971 39.5625 51V48H52.3125C54.072 48 55.5 46.656 55.5 45C55.5 43.344 54.072 42 52.3125 42Z" fill="white"/>
</svg>
